<svg width="27" height="28" viewBox="0 0 27 28" fill="none" xmlns="http://www.w3.org/2000/svg">
<path d="M27 14.0814C27 12.9488 26.9081 12.1223 26.7092 11.2652H13.7757V16.3773H21.3674C21.2144 17.6477 20.3878 19.561 18.5511 20.8466L18.5254 21.0177L22.6147 24.1857L22.898 24.214C25.5 21.8109 27 18.2752 27 14.0814Z" fill="#4285F4"/>
<path d="M13.7756 27.5506C17.4949 27.5506 20.6173 26.3261 22.8979 24.214L18.551 20.8466C17.3878 21.6578 15.8266 22.2241 13.7756 22.2241C10.1329 22.2241 7.04109 19.8212 5.93896 16.4998L5.77742 16.5135L1.52527 19.8043L1.46967 19.9589C3.73491 24.4588 8.38792 27.5506 13.7756 27.5506Z" fill="#34A853"/>
<path d="M5.93863 16.4998C5.64782 15.6426 5.47952 14.7242 5.47952 13.7753C5.47952 12.8263 5.64782 11.908 5.92333 11.0508L5.91563 10.8683L1.6102 7.52466L1.46933 7.59166C0.535712 9.459 0 11.556 0 13.7753C0 15.9947 0.535712 18.0915 1.46933 19.9588L5.93863 16.4998Z" fill="#FBBC05"/>
<path d="M13.7756 5.32642C16.3623 5.32642 18.1071 6.44374 19.1021 7.37746L22.9897 3.58158C20.6021 1.36223 17.4949 0 13.7756 0C8.38792 0 3.73491 3.09177 1.46967 7.59167L5.92366 11.0508C7.04109 7.72947 10.1329 5.32642 13.7756 5.32642Z" fill="#EB4335"/>
</svg>
